<mxfile host="app.diagrams.net" modified="2024-03-25T04:56:05.875Z" agent="Mozilla/5.0 (Windows NT 10.0; Win64; x64; rv:124.0) Gecko/20100101 Firefox/124.0" etag="GAatLtcuzuVCvVqwHsbn" version="24.0.0" type="github">
  <diagram name="Page-1" id="13e1069c-82ec-6db2-03f1-153e76fe0fe0">
    <mxGraphModel dx="1358" dy="637" grid="1" gridSize="10" guides="1" tooltips="1" connect="1" arrows="1" fold="1" page="1" pageScale="1" pageWidth="1100" pageHeight="850" background="none" math="0" shadow="0">
      <root>
        <mxCell id="0" />
        <mxCell id="1" parent="0" />
        <mxCell id="7baba1c4bc27f4b0-2" value="&lt;span style=&quot;white-space: pre;&quot;&gt;server&lt;br&gt;&lt;/span&gt;" style="shape=umlLifeline;perimeter=lifelinePerimeter;whiteSpace=wrap;html=1;container=1;collapsible=0;recursiveResize=0;outlineConnect=0;rounded=1;shadow=0;comic=0;labelBackgroundColor=none;strokeWidth=1;fontFamily=Verdana;fontSize=12;align=center;" parent="1" vertex="1">
          <mxGeometry x="250" y="80" width="100" height="620" as="geometry" />
        </mxCell>
        <mxCell id="Ft77UhkRJWXmUvaVcC4z-6" value="" style="html=1;points=[[0,0,0,0,5],[0,1,0,0,-5],[1,0,0,0,5],[1,1,0,0,-5]];perimeter=orthogonalPerimeter;outlineConnect=0;targetShapes=umlLifeline;portConstraint=eastwest;newEdgeStyle={&quot;curved&quot;:0,&quot;rounded&quot;:0};" vertex="1" parent="7baba1c4bc27f4b0-2">
          <mxGeometry x="40" y="60" width="20" height="70" as="geometry" />
        </mxCell>
        <mxCell id="Ft77UhkRJWXmUvaVcC4z-10" value="acknowledge()" style="html=1;verticalAlign=bottom;endArrow=open;dashed=1;endSize=8;curved=0;rounded=0;" edge="1" parent="7baba1c4bc27f4b0-2" target="Ft77UhkRJWXmUvaVcC4z-5">
          <mxGeometry relative="1" as="geometry">
            <mxPoint x="40" y="89.5" as="sourcePoint" />
            <mxPoint x="-40" y="89.5" as="targetPoint" />
          </mxGeometry>
        </mxCell>
        <mxCell id="Ft77UhkRJWXmUvaVcC4z-18" value="" style="html=1;points=[[0,0,0,0,5],[0,1,0,0,-5],[1,0,0,0,5],[1,1,0,0,-5]];perimeter=orthogonalPerimeter;outlineConnect=0;targetShapes=umlLifeline;portConstraint=eastwest;newEdgeStyle={&quot;curved&quot;:0,&quot;rounded&quot;:0};" vertex="1" parent="7baba1c4bc27f4b0-2">
          <mxGeometry x="40" y="150" width="20" height="40" as="geometry" />
        </mxCell>
        <mxCell id="Ft77UhkRJWXmUvaVcC4z-77" value="" style="shape=umlDestroy;whiteSpace=wrap;html=1;strokeWidth=3;targetShapes=umlLifeline;" vertex="1" parent="7baba1c4bc27f4b0-2">
          <mxGeometry x="42.5" y="600" width="15" height="10" as="geometry" />
        </mxCell>
        <mxCell id="7baba1c4bc27f4b0-3" value="Database" style="shape=umlLifeline;perimeter=lifelinePerimeter;whiteSpace=wrap;html=1;container=1;collapsible=0;recursiveResize=0;outlineConnect=0;rounded=1;shadow=0;comic=0;labelBackgroundColor=none;strokeWidth=1;fontFamily=Verdana;fontSize=12;align=center;" parent="1" vertex="1">
          <mxGeometry x="400" y="80" width="130" height="620" as="geometry" />
        </mxCell>
        <mxCell id="Ft77UhkRJWXmUvaVcC4z-13" value="" style="html=1;points=[[0,0,0,0,5],[0,1,0,0,-5],[1,0,0,0,5],[1,1,0,0,-5]];perimeter=orthogonalPerimeter;outlineConnect=0;targetShapes=umlLifeline;portConstraint=eastwest;newEdgeStyle={&quot;curved&quot;:0,&quot;rounded&quot;:0};" vertex="1" parent="7baba1c4bc27f4b0-3">
          <mxGeometry x="55" y="90" width="20" height="100" as="geometry" />
        </mxCell>
        <mxCell id="Ft77UhkRJWXmUvaVcC4z-16" style="edgeStyle=orthogonalEdgeStyle;rounded=0;orthogonalLoop=1;jettySize=auto;html=1;curved=0;exitX=1;exitY=0;exitDx=0;exitDy=5;exitPerimeter=0;" edge="1" parent="7baba1c4bc27f4b0-3" source="Ft77UhkRJWXmUvaVcC4z-13" target="Ft77UhkRJWXmUvaVcC4z-13">
          <mxGeometry relative="1" as="geometry">
            <Array as="points">
              <mxPoint x="75" y="60" />
              <mxPoint x="100" y="60" />
              <mxPoint x="100" y="140" />
            </Array>
          </mxGeometry>
        </mxCell>
        <mxCell id="Ft77UhkRJWXmUvaVcC4z-20" value="response()" style="html=1;verticalAlign=bottom;endArrow=open;dashed=1;endSize=8;curved=0;rounded=0;" edge="1" parent="7baba1c4bc27f4b0-3" target="Ft77UhkRJWXmUvaVcC4z-18">
          <mxGeometry relative="1" as="geometry">
            <mxPoint x="55" y="160" as="sourcePoint" />
            <mxPoint x="-75" y="160.5" as="targetPoint" />
          </mxGeometry>
        </mxCell>
        <mxCell id="Ft77UhkRJWXmUvaVcC4z-34" value="show_changes()" style="html=1;verticalAlign=bottom;endArrow=open;dashed=1;endSize=8;curved=0;rounded=0;" edge="1" parent="7baba1c4bc27f4b0-3">
          <mxGeometry relative="1" as="geometry">
            <mxPoint x="185" y="260" as="sourcePoint" />
            <mxPoint x="-240" y="260" as="targetPoint" />
          </mxGeometry>
        </mxCell>
        <mxCell id="Ft77UhkRJWXmUvaVcC4z-35" value="" style="html=1;points=[[0,0,0,0,5],[0,1,0,0,-5],[1,0,0,0,5],[1,1,0,0,-5]];perimeter=orthogonalPerimeter;outlineConnect=0;targetShapes=umlLifeline;portConstraint=eastwest;newEdgeStyle={&quot;curved&quot;:0,&quot;rounded&quot;:0};" vertex="1" parent="7baba1c4bc27f4b0-3">
          <mxGeometry x="55" y="270" width="20" height="40" as="geometry" />
        </mxCell>
        <mxCell id="Ft77UhkRJWXmUvaVcC4z-45" value="" style="html=1;points=[[0,0,0,0,5],[0,1,0,0,-5],[1,0,0,0,5],[1,1,0,0,-5]];perimeter=orthogonalPerimeter;outlineConnect=0;targetShapes=umlLifeline;portConstraint=eastwest;newEdgeStyle={&quot;curved&quot;:0,&quot;rounded&quot;:0};" vertex="1" parent="7baba1c4bc27f4b0-3">
          <mxGeometry x="55" y="390" width="20" height="40" as="geometry" />
        </mxCell>
        <mxCell id="Ft77UhkRJWXmUvaVcC4z-55" value="" style="html=1;points=[[0,0,0,0,5],[0,1,0,0,-5],[1,0,0,0,5],[1,1,0,0,-5]];perimeter=orthogonalPerimeter;outlineConnect=0;targetShapes=umlLifeline;portConstraint=eastwest;newEdgeStyle={&quot;curved&quot;:0,&quot;rounded&quot;:0};" vertex="1" parent="7baba1c4bc27f4b0-3">
          <mxGeometry x="55" y="450" width="20" height="40" as="geometry" />
        </mxCell>
        <mxCell id="Ft77UhkRJWXmUvaVcC4z-68" value="" style="html=1;points=[[0,0,0,0,5],[0,1,0,0,-5],[1,0,0,0,5],[1,1,0,0,-5]];perimeter=orthogonalPerimeter;outlineConnect=0;targetShapes=umlLifeline;portConstraint=eastwest;newEdgeStyle={&quot;curved&quot;:0,&quot;rounded&quot;:0};" vertex="1" parent="7baba1c4bc27f4b0-3">
          <mxGeometry x="55" y="510" width="20" height="40" as="geometry" />
        </mxCell>
        <mxCell id="Ft77UhkRJWXmUvaVcC4z-78" value="" style="shape=umlDestroy;whiteSpace=wrap;html=1;strokeWidth=3;targetShapes=umlLifeline;" vertex="1" parent="7baba1c4bc27f4b0-3">
          <mxGeometry x="57.5" y="600" width="15" height="10" as="geometry" />
        </mxCell>
        <mxCell id="7baba1c4bc27f4b0-4" value="Account" style="shape=umlLifeline;perimeter=lifelinePerimeter;whiteSpace=wrap;html=1;container=1;collapsible=0;recursiveResize=0;outlineConnect=0;rounded=1;shadow=0;comic=0;labelBackgroundColor=none;strokeWidth=1;fontFamily=Verdana;fontSize=12;align=center;" parent="1" vertex="1">
          <mxGeometry x="550" y="80" width="100" height="620" as="geometry" />
        </mxCell>
        <mxCell id="Ft77UhkRJWXmUvaVcC4z-22" value="" style="html=1;points=[[0,0,0,0,5],[0,1,0,0,-5],[1,0,0,0,5],[1,1,0,0,-5]];perimeter=orthogonalPerimeter;outlineConnect=0;targetShapes=umlLifeline;portConstraint=eastwest;newEdgeStyle={&quot;curved&quot;:0,&quot;rounded&quot;:0};" vertex="1" parent="7baba1c4bc27f4b0-4">
          <mxGeometry x="40" y="200" width="20" height="90" as="geometry" />
        </mxCell>
        <mxCell id="Ft77UhkRJWXmUvaVcC4z-31" style="edgeStyle=orthogonalEdgeStyle;rounded=0;orthogonalLoop=1;jettySize=auto;html=1;curved=0;exitX=1;exitY=0;exitDx=0;exitDy=5;exitPerimeter=0;" edge="1" parent="7baba1c4bc27f4b0-4" source="Ft77UhkRJWXmUvaVcC4z-22" target="Ft77UhkRJWXmUvaVcC4z-22">
          <mxGeometry relative="1" as="geometry">
            <Array as="points">
              <mxPoint x="60" y="170" />
              <mxPoint x="90" y="170" />
              <mxPoint x="90" y="235" />
            </Array>
          </mxGeometry>
        </mxCell>
        <mxCell id="Ft77UhkRJWXmUvaVcC4z-79" value="" style="shape=umlDestroy;whiteSpace=wrap;html=1;strokeWidth=3;targetShapes=umlLifeline;" vertex="1" parent="7baba1c4bc27f4b0-4">
          <mxGeometry x="42.5" y="600" width="15" height="10" as="geometry" />
        </mxCell>
        <mxCell id="7baba1c4bc27f4b0-5" value="Search" style="shape=umlLifeline;perimeter=lifelinePerimeter;whiteSpace=wrap;html=1;container=1;collapsible=0;recursiveResize=0;outlineConnect=0;rounded=1;shadow=0;comic=0;labelBackgroundColor=none;strokeWidth=1;fontFamily=Verdana;fontSize=12;align=center;" parent="1" vertex="1">
          <mxGeometry x="680" y="80" width="100" height="620" as="geometry" />
        </mxCell>
        <mxCell id="Ft77UhkRJWXmUvaVcC4z-38" value="" style="html=1;points=[[0,0,0,0,5],[0,1,0,0,-5],[1,0,0,0,5],[1,1,0,0,-5]];perimeter=orthogonalPerimeter;outlineConnect=0;targetShapes=umlLifeline;portConstraint=eastwest;newEdgeStyle={&quot;curved&quot;:0,&quot;rounded&quot;:0};" vertex="1" parent="7baba1c4bc27f4b0-5">
          <mxGeometry x="40" y="320" width="20" height="90" as="geometry" />
        </mxCell>
        <mxCell id="Ft77UhkRJWXmUvaVcC4z-42" style="edgeStyle=orthogonalEdgeStyle;rounded=0;orthogonalLoop=1;jettySize=auto;html=1;curved=0;exitX=1;exitY=0;exitDx=0;exitDy=5;exitPerimeter=0;" edge="1" parent="7baba1c4bc27f4b0-5" source="Ft77UhkRJWXmUvaVcC4z-38" target="Ft77UhkRJWXmUvaVcC4z-38">
          <mxGeometry relative="1" as="geometry">
            <Array as="points">
              <mxPoint x="60" y="280" />
              <mxPoint x="90" y="280" />
              <mxPoint x="90" y="365" />
            </Array>
          </mxGeometry>
        </mxCell>
        <mxCell id="Ft77UhkRJWXmUvaVcC4z-80" value="" style="shape=umlDestroy;whiteSpace=wrap;html=1;strokeWidth=3;targetShapes=umlLifeline;" vertex="1" parent="7baba1c4bc27f4b0-5">
          <mxGeometry x="42.5" y="600" width="15" height="10" as="geometry" />
        </mxCell>
        <mxCell id="7baba1c4bc27f4b0-6" value="proposal" style="shape=umlLifeline;perimeter=lifelinePerimeter;whiteSpace=wrap;html=1;container=1;collapsible=0;recursiveResize=0;outlineConnect=0;rounded=1;shadow=0;comic=0;labelBackgroundColor=none;strokeWidth=1;fontFamily=Verdana;fontSize=12;align=center;" parent="1" vertex="1">
          <mxGeometry x="820" y="80" width="100" height="620" as="geometry" />
        </mxCell>
        <mxCell id="Ft77UhkRJWXmUvaVcC4z-49" value="" style="html=1;points=[[0,0,0,0,5],[0,1,0,0,-5],[1,0,0,0,5],[1,1,0,0,-5]];perimeter=orthogonalPerimeter;outlineConnect=0;targetShapes=umlLifeline;portConstraint=eastwest;newEdgeStyle={&quot;curved&quot;:0,&quot;rounded&quot;:0};" vertex="1" parent="7baba1c4bc27f4b0-6">
          <mxGeometry x="40" y="400" width="20" height="70" as="geometry" />
        </mxCell>
        <mxCell id="Ft77UhkRJWXmUvaVcC4z-53" style="edgeStyle=orthogonalEdgeStyle;rounded=0;orthogonalLoop=1;jettySize=auto;html=1;curved=0;exitX=1;exitY=0;exitDx=0;exitDy=5;exitPerimeter=0;" edge="1" parent="7baba1c4bc27f4b0-6" source="Ft77UhkRJWXmUvaVcC4z-49" target="Ft77UhkRJWXmUvaVcC4z-49">
          <mxGeometry relative="1" as="geometry">
            <Array as="points">
              <mxPoint x="60" y="360" />
              <mxPoint x="90" y="360" />
              <mxPoint x="90" y="445" />
            </Array>
          </mxGeometry>
        </mxCell>
        <mxCell id="Ft77UhkRJWXmUvaVcC4z-81" value="" style="shape=umlDestroy;whiteSpace=wrap;html=1;strokeWidth=3;targetShapes=umlLifeline;" vertex="1" parent="7baba1c4bc27f4b0-6">
          <mxGeometry x="42.5" y="600" width="15" height="10" as="geometry" />
        </mxCell>
        <mxCell id="7baba1c4bc27f4b0-7" value="payment" style="shape=umlLifeline;perimeter=lifelinePerimeter;whiteSpace=wrap;html=1;container=1;collapsible=0;recursiveResize=0;outlineConnect=0;rounded=1;shadow=0;comic=0;labelBackgroundColor=none;strokeWidth=1;fontFamily=Verdana;fontSize=12;align=center;" parent="1" vertex="1">
          <mxGeometry x="960" y="80" width="100" height="620" as="geometry" />
        </mxCell>
        <mxCell id="Ft77UhkRJWXmUvaVcC4z-61" value="" style="html=1;points=[[0,0,0,0,5],[0,1,0,0,-5],[1,0,0,0,5],[1,1,0,0,-5]];perimeter=orthogonalPerimeter;outlineConnect=0;targetShapes=umlLifeline;portConstraint=eastwest;newEdgeStyle={&quot;curved&quot;:0,&quot;rounded&quot;:0};" vertex="1" parent="7baba1c4bc27f4b0-7">
          <mxGeometry x="40" y="458" width="20" height="62" as="geometry" />
        </mxCell>
        <mxCell id="Ft77UhkRJWXmUvaVcC4z-66" style="edgeStyle=orthogonalEdgeStyle;rounded=0;orthogonalLoop=1;jettySize=auto;html=1;curved=0;exitX=1;exitY=0;exitDx=0;exitDy=5;exitPerimeter=0;" edge="1" parent="7baba1c4bc27f4b0-7" source="Ft77UhkRJWXmUvaVcC4z-61" target="Ft77UhkRJWXmUvaVcC4z-61">
          <mxGeometry relative="1" as="geometry">
            <Array as="points">
              <mxPoint x="60" y="430" />
              <mxPoint x="90" y="430" />
              <mxPoint x="90" y="483" />
            </Array>
          </mxGeometry>
        </mxCell>
        <mxCell id="Ft77UhkRJWXmUvaVcC4z-82" value="" style="shape=umlDestroy;whiteSpace=wrap;html=1;strokeWidth=3;targetShapes=umlLifeline;" vertex="1" parent="7baba1c4bc27f4b0-7">
          <mxGeometry x="42.5" y="600" width="15" height="10" as="geometry" />
        </mxCell>
        <mxCell id="Ft77UhkRJWXmUvaVcC4z-4" value="User" style="shape=umlLifeline;perimeter=lifelinePerimeter;whiteSpace=wrap;html=1;container=1;collapsible=0;recursiveResize=0;outlineConnect=0;rounded=1;shadow=0;comic=0;labelBackgroundColor=none;strokeWidth=1;fontFamily=Verdana;fontSize=12;align=center;" vertex="1" parent="1">
          <mxGeometry x="100" y="80" width="100" height="620" as="geometry" />
        </mxCell>
        <mxCell id="Ft77UhkRJWXmUvaVcC4z-5" value="" style="html=1;points=[[0,0,0,0,5],[0,1,0,0,-5],[1,0,0,0,5],[1,1,0,0,-5]];perimeter=orthogonalPerimeter;outlineConnect=0;targetShapes=umlLifeline;portConstraint=eastwest;newEdgeStyle={&quot;curved&quot;:0,&quot;rounded&quot;:0};" vertex="1" parent="Ft77UhkRJWXmUvaVcC4z-4">
          <mxGeometry x="40" y="60" width="20" height="500" as="geometry" />
        </mxCell>
        <mxCell id="Ft77UhkRJWXmUvaVcC4z-72" value="" style="shape=umlDestroy;whiteSpace=wrap;html=1;strokeWidth=3;targetShapes=umlLifeline;" vertex="1" parent="Ft77UhkRJWXmUvaVcC4z-4">
          <mxGeometry x="42.5" y="600" width="15" height="10" as="geometry" />
        </mxCell>
        <mxCell id="Ft77UhkRJWXmUvaVcC4z-7" style="edgeStyle=orthogonalEdgeStyle;rounded=0;orthogonalLoop=1;jettySize=auto;html=1;curved=0;exitX=1;exitY=0;exitDx=0;exitDy=5;exitPerimeter=0;entryX=0;entryY=0;entryDx=0;entryDy=5;entryPerimeter=0;" edge="1" parent="1" source="Ft77UhkRJWXmUvaVcC4z-5" target="Ft77UhkRJWXmUvaVcC4z-6">
          <mxGeometry relative="1" as="geometry" />
        </mxCell>
        <mxCell id="Ft77UhkRJWXmUvaVcC4z-8" value="request()" style="text;html=1;align=center;verticalAlign=middle;resizable=0;points=[];autosize=1;strokeColor=none;fillColor=none;" vertex="1" parent="1">
          <mxGeometry x="185" y="118" width="70" height="30" as="geometry" />
        </mxCell>
        <mxCell id="Ft77UhkRJWXmUvaVcC4z-11" style="edgeStyle=orthogonalEdgeStyle;rounded=0;orthogonalLoop=1;jettySize=auto;html=1;curved=0;" edge="1" parent="1">
          <mxGeometry relative="1" as="geometry">
            <mxPoint x="160" y="200" as="sourcePoint" />
            <mxPoint x="290" y="200" as="targetPoint" />
            <Array as="points">
              <mxPoint x="220" y="200" />
              <mxPoint x="220" y="200" />
            </Array>
          </mxGeometry>
        </mxCell>
        <mxCell id="Ft77UhkRJWXmUvaVcC4z-14" style="edgeStyle=orthogonalEdgeStyle;rounded=0;orthogonalLoop=1;jettySize=auto;html=1;curved=0;exitX=1;exitY=0;exitDx=0;exitDy=5;exitPerimeter=0;entryX=0;entryY=0;entryDx=0;entryDy=5;entryPerimeter=0;" edge="1" parent="1" source="Ft77UhkRJWXmUvaVcC4z-6" target="Ft77UhkRJWXmUvaVcC4z-13">
          <mxGeometry relative="1" as="geometry">
            <Array as="points">
              <mxPoint x="310" y="175" />
            </Array>
          </mxGeometry>
        </mxCell>
        <mxCell id="Ft77UhkRJWXmUvaVcC4z-15" value="check(user, pass)" style="text;html=1;align=center;verticalAlign=middle;resizable=0;points=[];autosize=1;strokeColor=none;fillColor=none;" vertex="1" parent="1">
          <mxGeometry x="315" y="148" width="120" height="30" as="geometry" />
        </mxCell>
        <mxCell id="Ft77UhkRJWXmUvaVcC4z-12" value="request(user, pass)" style="text;html=1;align=center;verticalAlign=middle;resizable=0;points=[];autosize=1;strokeColor=none;fillColor=none;" vertex="1" parent="1">
          <mxGeometry x="160" y="170" width="130" height="30" as="geometry" />
        </mxCell>
        <mxCell id="Ft77UhkRJWXmUvaVcC4z-21" value="send_response()" style="html=1;verticalAlign=bottom;endArrow=open;dashed=1;endSize=8;curved=0;rounded=0;" edge="1" parent="1" target="Ft77UhkRJWXmUvaVcC4z-5">
          <mxGeometry relative="1" as="geometry">
            <mxPoint x="290" y="260" as="sourcePoint" />
            <mxPoint x="145" y="260" as="targetPoint" />
          </mxGeometry>
        </mxCell>
        <mxCell id="Ft77UhkRJWXmUvaVcC4z-27" style="edgeStyle=orthogonalEdgeStyle;rounded=0;orthogonalLoop=1;jettySize=auto;html=1;curved=0;entryX=0;entryY=0;entryDx=0;entryDy=5;entryPerimeter=0;" edge="1" parent="1" source="Ft77UhkRJWXmUvaVcC4z-5" target="Ft77UhkRJWXmUvaVcC4z-22">
          <mxGeometry relative="1" as="geometry">
            <Array as="points">
              <mxPoint x="270" y="285" />
              <mxPoint x="270" y="285" />
            </Array>
          </mxGeometry>
        </mxCell>
        <mxCell id="Ft77UhkRJWXmUvaVcC4z-28" value="modify_account()" style="text;html=1;align=center;verticalAlign=middle;resizable=0;points=[];autosize=1;strokeColor=none;fillColor=none;" vertex="1" parent="1">
          <mxGeometry x="325" y="280" width="110" height="30" as="geometry" />
        </mxCell>
        <mxCell id="Ft77UhkRJWXmUvaVcC4z-17" value="verify()" style="text;html=1;align=center;verticalAlign=middle;resizable=0;points=[];autosize=1;strokeColor=none;fillColor=none;" vertex="1" parent="1">
          <mxGeometry x="500" y="140" width="60" height="30" as="geometry" />
        </mxCell>
        <mxCell id="Ft77UhkRJWXmUvaVcC4z-33" value="authorize()" style="text;html=1;align=center;verticalAlign=middle;resizable=0;points=[];autosize=1;strokeColor=none;fillColor=none;" vertex="1" parent="1">
          <mxGeometry x="610" y="210" width="80" height="30" as="geometry" />
        </mxCell>
        <mxCell id="Ft77UhkRJWXmUvaVcC4z-36" style="edgeStyle=orthogonalEdgeStyle;rounded=0;orthogonalLoop=1;jettySize=auto;html=1;curved=0;exitX=0;exitY=1;exitDx=0;exitDy=-5;exitPerimeter=0;entryX=1;entryY=0;entryDx=0;entryDy=5;entryPerimeter=0;" edge="1" parent="1" source="Ft77UhkRJWXmUvaVcC4z-22" target="Ft77UhkRJWXmUvaVcC4z-35">
          <mxGeometry relative="1" as="geometry">
            <Array as="points">
              <mxPoint x="590" y="355" />
            </Array>
          </mxGeometry>
        </mxCell>
        <mxCell id="Ft77UhkRJWXmUvaVcC4z-37" value="update()" style="text;html=1;align=center;verticalAlign=middle;resizable=0;points=[];autosize=1;strokeColor=none;fillColor=none;" vertex="1" parent="1">
          <mxGeometry x="495" y="355" width="70" height="30" as="geometry" />
        </mxCell>
        <mxCell id="Ft77UhkRJWXmUvaVcC4z-40" style="edgeStyle=orthogonalEdgeStyle;rounded=0;orthogonalLoop=1;jettySize=auto;html=1;curved=0;entryX=0;entryY=0;entryDx=0;entryDy=5;entryPerimeter=0;" edge="1" parent="1" source="Ft77UhkRJWXmUvaVcC4z-5" target="Ft77UhkRJWXmUvaVcC4z-38">
          <mxGeometry relative="1" as="geometry">
            <Array as="points">
              <mxPoint x="440" y="405" />
              <mxPoint x="440" y="405" />
            </Array>
          </mxGeometry>
        </mxCell>
        <mxCell id="Ft77UhkRJWXmUvaVcC4z-41" value="search()" style="text;html=1;align=center;verticalAlign=middle;resizable=0;points=[];autosize=1;strokeColor=none;fillColor=none;" vertex="1" parent="1">
          <mxGeometry x="350" y="400" width="70" height="30" as="geometry" />
        </mxCell>
        <mxCell id="Ft77UhkRJWXmUvaVcC4z-43" value="apply_filters()" style="text;html=1;align=center;verticalAlign=middle;resizable=0;points=[];autosize=1;strokeColor=none;fillColor=none;" vertex="1" parent="1">
          <mxGeometry x="740" y="325" width="90" height="30" as="geometry" />
        </mxCell>
        <mxCell id="Ft77UhkRJWXmUvaVcC4z-44" value="return_results()" style="html=1;verticalAlign=bottom;endArrow=open;dashed=1;endSize=8;curved=0;rounded=0;" edge="1" parent="1" source="Ft77UhkRJWXmUvaVcC4z-38" target="Ft77UhkRJWXmUvaVcC4z-5">
          <mxGeometry relative="1" as="geometry">
            <mxPoint x="715" y="460" as="sourcePoint" />
            <mxPoint x="290" y="460" as="targetPoint" />
          </mxGeometry>
        </mxCell>
        <mxCell id="Ft77UhkRJWXmUvaVcC4z-47" style="edgeStyle=orthogonalEdgeStyle;rounded=0;orthogonalLoop=1;jettySize=auto;html=1;curved=0;entryX=1;entryY=0;entryDx=0;entryDy=5;entryPerimeter=0;" edge="1" parent="1" source="Ft77UhkRJWXmUvaVcC4z-38" target="Ft77UhkRJWXmUvaVcC4z-45">
          <mxGeometry relative="1" as="geometry">
            <Array as="points">
              <mxPoint x="660" y="475" />
              <mxPoint x="660" y="475" />
            </Array>
          </mxGeometry>
        </mxCell>
        <mxCell id="Ft77UhkRJWXmUvaVcC4z-48" value="add_sel_property()" style="text;html=1;align=center;verticalAlign=middle;resizable=0;points=[];autosize=1;strokeColor=none;fillColor=none;" vertex="1" parent="1">
          <mxGeometry x="580" y="470" width="120" height="30" as="geometry" />
        </mxCell>
        <mxCell id="Ft77UhkRJWXmUvaVcC4z-50" style="edgeStyle=orthogonalEdgeStyle;rounded=0;orthogonalLoop=1;jettySize=auto;html=1;curved=0;exitX=1;exitY=1;exitDx=0;exitDy=-5;exitPerimeter=0;entryX=0;entryY=0;entryDx=0;entryDy=5;entryPerimeter=0;" edge="1" parent="1" source="Ft77UhkRJWXmUvaVcC4z-38" target="Ft77UhkRJWXmUvaVcC4z-49">
          <mxGeometry relative="1" as="geometry" />
        </mxCell>
        <mxCell id="Ft77UhkRJWXmUvaVcC4z-51" value="propose_proposal()" style="text;html=1;align=center;verticalAlign=middle;resizable=0;points=[];autosize=1;strokeColor=none;fillColor=none;" vertex="1" parent="1">
          <mxGeometry x="730" y="480" width="130" height="30" as="geometry" />
        </mxCell>
        <mxCell id="Ft77UhkRJWXmUvaVcC4z-54" value="admin_verify()" style="text;html=1;align=center;verticalAlign=middle;resizable=0;points=[];autosize=1;strokeColor=none;fillColor=none;" vertex="1" parent="1">
          <mxGeometry x="870" y="410" width="100" height="30" as="geometry" />
        </mxCell>
        <mxCell id="Ft77UhkRJWXmUvaVcC4z-57" style="edgeStyle=orthogonalEdgeStyle;rounded=0;orthogonalLoop=1;jettySize=auto;html=1;curved=0;exitX=0;exitY=1;exitDx=0;exitDy=-5;exitPerimeter=0;entryX=1;entryY=0;entryDx=0;entryDy=5;entryPerimeter=0;" edge="1" parent="1" source="Ft77UhkRJWXmUvaVcC4z-49" target="Ft77UhkRJWXmUvaVcC4z-55">
          <mxGeometry relative="1" as="geometry">
            <Array as="points">
              <mxPoint x="860" y="535" />
            </Array>
          </mxGeometry>
        </mxCell>
        <mxCell id="Ft77UhkRJWXmUvaVcC4z-58" value="save_proposal_status()" style="text;html=1;align=center;verticalAlign=middle;resizable=0;points=[];autosize=1;strokeColor=none;fillColor=none;" vertex="1" parent="1">
          <mxGeometry x="575" y="508" width="150" height="30" as="geometry" />
        </mxCell>
        <mxCell id="Ft77UhkRJWXmUvaVcC4z-60" value="send_proposal_status()" style="html=1;verticalAlign=bottom;endArrow=open;dashed=1;endSize=8;curved=0;rounded=0;exitX=0;exitY=1;exitDx=0;exitDy=-5;exitPerimeter=0;" edge="1" parent="1" source="Ft77UhkRJWXmUvaVcC4z-55" target="Ft77UhkRJWXmUvaVcC4z-5">
          <mxGeometry relative="1" as="geometry">
            <mxPoint x="450" y="560" as="sourcePoint" />
            <mxPoint x="220" y="560" as="targetPoint" />
          </mxGeometry>
        </mxCell>
        <mxCell id="Ft77UhkRJWXmUvaVcC4z-63" style="edgeStyle=orthogonalEdgeStyle;rounded=0;orthogonalLoop=1;jettySize=auto;html=1;curved=0;exitX=1;exitY=1;exitDx=0;exitDy=-5;exitPerimeter=0;entryX=0;entryY=0;entryDx=0;entryDy=5;entryPerimeter=0;" edge="1" parent="1" source="Ft77UhkRJWXmUvaVcC4z-49" target="Ft77UhkRJWXmUvaVcC4z-61">
          <mxGeometry relative="1" as="geometry">
            <Array as="points">
              <mxPoint x="880" y="543" />
            </Array>
          </mxGeometry>
        </mxCell>
        <mxCell id="Ft77UhkRJWXmUvaVcC4z-64" value="propose_payment()" style="text;html=1;align=center;verticalAlign=middle;resizable=0;points=[];autosize=1;strokeColor=none;fillColor=none;" vertex="1" parent="1">
          <mxGeometry x="865" y="538" width="130" height="30" as="geometry" />
        </mxCell>
        <mxCell id="Ft77UhkRJWXmUvaVcC4z-67" value="pay_verify()" style="text;html=1;align=center;verticalAlign=middle;resizable=0;points=[];autosize=1;strokeColor=none;fillColor=none;" vertex="1" parent="1">
          <mxGeometry x="1020" y="478" width="80" height="30" as="geometry" />
        </mxCell>
        <mxCell id="Ft77UhkRJWXmUvaVcC4z-69" style="edgeStyle=orthogonalEdgeStyle;rounded=0;orthogonalLoop=1;jettySize=auto;html=1;curved=0;exitX=0;exitY=1;exitDx=0;exitDy=-5;exitPerimeter=0;entryX=1;entryY=0;entryDx=0;entryDy=5;entryPerimeter=0;" edge="1" parent="1" source="Ft77UhkRJWXmUvaVcC4z-61" target="Ft77UhkRJWXmUvaVcC4z-68">
          <mxGeometry relative="1" as="geometry">
            <Array as="points">
              <mxPoint x="1000" y="595" />
            </Array>
          </mxGeometry>
        </mxCell>
        <mxCell id="Ft77UhkRJWXmUvaVcC4z-70" value="payment_status()" style="text;html=1;align=center;verticalAlign=middle;resizable=0;points=[];autosize=1;strokeColor=none;fillColor=none;" vertex="1" parent="1">
          <mxGeometry x="695" y="568" width="110" height="30" as="geometry" />
        </mxCell>
        <mxCell id="Ft77UhkRJWXmUvaVcC4z-71" value="send_payment_status()" style="html=1;verticalAlign=bottom;endArrow=open;dashed=1;endSize=8;curved=0;rounded=0;exitX=0;exitY=1;exitDx=0;exitDy=-5;exitPerimeter=0;" edge="1" parent="1">
          <mxGeometry relative="1" as="geometry">
            <mxPoint x="455" y="620" as="sourcePoint" />
            <mxPoint x="160" y="620" as="targetPoint" />
          </mxGeometry>
        </mxCell>
        <mxCell id="Ft77UhkRJWXmUvaVcC4z-83" value="INTERACTION DIAGRAM " style="text;html=1;align=center;verticalAlign=middle;resizable=0;points=[];autosize=1;strokeColor=none;fillColor=none;" vertex="1" parent="1">
          <mxGeometry x="480" y="40" width="160" height="30" as="geometry" />
        </mxCell>
      </root>
    </mxGraphModel>
  </diagram>
</mxfile>
